<svg xmlns="http://www.w3.org/2000/svg" viewBox="0 0 64 64" fill="none">
  <rect width="64" height="64" rx="14" fill="#25D366"/>
  <path d="M32 14c-9.9 0-18 8.1-18 18 0 3.2.8 6.2 2.4 8.8L14 50l9.4-2.5c2.5 1.4 5.4 2.1 8.6 2.1 9.9 0 18-8.1 18-18s-8.1-18-18-18zm0 32.4c-2.8 0-5.6-.8-7.9-2.2l-.6-.3-5.6 1.5 1.5-5.4-.4-.6c-1.6-2.5-2.5-5.4-2.5-8.4 0-8 6.5-14.4 14.4-14.4s14.4 6.5 14.4 14.4-6.4 14.4-14.3 14.4zm7.9-10.8c-.4-.2-2.5-1.2-2.9-1.4-.4-.1-.7-.2-1 .2s-1.1 1.4-1.4 1.7c-.3.3-.5.3-.9.1-.4-.2-1.8-.7-3.4-2.1-1.2-1.1-2.1-2.5-2.3-2.9-.2-.4 0-.7.2-.9.2-.2.4-.5.7-.7.2-.2.3-.4.5-.6.1-.3.1-.5 0-.7-.1-.2-1-2.4-1.4-3.3-.4-.9-.7-.7-1-.8h-.8c-.3 0-.8.1-1.2.5s-1.5 1.5-1.5 3.6 1.6 4.2 1.8 4.5c.2.3 3.1 4.7 7.5 6.6 1 .5 1.9.7 2.5.9 1.1.3 2 .3 2.8.2.8-.1 2.5-1 2.9-2s.4-1.8.3-2c-.1-.2-.4-.3-.8-.5z" fill="white"/>
</svg>